<svg width="400" height="533" viewBox="0 0 400 533" fill="none" xmlns="http://www.w3.org/2000/svg">
  <rect x="0" y="0" width="400" height="533" rx="16" fill="#f3f4f6" stroke="#d1d5db" stroke-width="4" stroke-dasharray="12 12" />
  <path d="M200 170c-18 0-33 15-33 33v10c0 6-5 11-11 11h-18c-6 0-11 5-11 11v12c0 3 3 6 6 6h134c3 0 6-3 6-6v-12c0-6-5-11-11-11h-18c-6 0-11-5-11-11v-10c0-18-15-33-33-33z" fill="#e5e7eb" stroke="#cbd5e1" stroke-width="6" />
  <circle cx="200" cy="150" r="18" fill="#cbd5e1" />
  <text x="200" y="310" text-anchor="middle" font-family="Arial, sans-serif" font-size="24" fill="#9ca3af">Нет изображения</text>
  <text x="200" y="345" text-anchor="middle" font-family="Arial, sans-serif" font-size="16" fill="#cbd5e1">SharpLook</text>
</svg>
